<?xml version="1.0" encoding="UTF-8" standalone="no"?>
<!-- Created with Inkscape (http://www.inkscape.org/) -->

<svg
   version="1.1"
   id="svg1309"
   width="698.18182"
   height="384"
   viewBox="0 0 698.18182 384"
   sodipodi:docname="wing_base.svg"
   inkscape:version="1.1.2 (0a00cf5339, 2022-02-04)"
   xmlns:inkscape="http://www.inkscape.org/namespaces/inkscape"
   xmlns:sodipodi="http://sodipodi.sourceforge.net/DTD/sodipodi-0.dtd"
   xmlns="http://www.w3.org/2000/svg"
   xmlns:svg="http://www.w3.org/2000/svg">
  <defs
     id="defs1313" />
  <sodipodi:namedview
     id="namedview1311"
     pagecolor="#ffffff"
     bordercolor="#000000"
     borderopacity="0.25"
     inkscape:pageshadow="2"
     inkscape:pageopacity="0.0"
     inkscape:pagecheckerboard="0"
     showgrid="false"
     inkscape:zoom="0.93619792"
     inkscape:cx="303.35466"
     inkscape:cy="123.37135"
     inkscape:window-width="1858"
     inkscape:window-height="1136"
     inkscape:window-x="0"
     inkscape:window-y="0"
     inkscape:window-maximized="1"
     inkscape:current-layer="g1315" />
  <g
     inkscape:groupmode="layer"
     inkscape:label="Image"
     id="g1315">
    <path
       style="fill:none;stroke-width:0.363636;stroke:#000000;stroke-opacity:1"
       d="m 50.12172,299.12701 c -0.22544,-0.58749 0.32343,-7.9972 0.94366,-12.73935 0.18311,-1.4 0.43801,-3.52727 0.56645,-4.72727 0.81235,-7.58982 3.58188,-19.32434 6.39388,-27.09091 1.44311,-3.98575 3.46093,-8.54245 6.11906,-13.81818 1.26941,-2.51946 6.3319,-10.93171 7.97614,-13.25381 1.70912,-2.41371 6.92966,-7.9088 12.77377,-13.44555 3.37291,-3.19552 8.88108,-6.75385 18.36363,-11.86308 12.2461,-6.59824 26.20186,-15.74324 35.42179,-23.21137 3.38934,-2.74537 4.60655,-4.12269 11.30548,-12.79257 1.9,-2.45901 4.43637,-5.60051 5.63637,-6.98109 1.2,-1.38058 3.05777,-3.60173 4.12838,-4.93589 5.73884,-7.15153 9.30787,-10.43836 20.79746,-19.15301 3.95526,-3 10.97011,-8.37052 15.58854,-11.93448 12.33098,-9.51562 16.00639,-11.66293 30.86993,-18.0354 11.11689,-4.76617 14.87433,-5.905951 28.43387,-8.625151 14.15718,-2.83905 16.79465,-3.03718 28.72727,-2.15798 8.56578,0.63113 23.34822,2.40056 27.98713,3.35002 9.21848,1.88677 19.39807,6.148631 25.2856,10.586251 1.6,1.20596 5.11818,3.5311 7.81818,5.16696 2.7,1.63585 5.64546,3.69089 6.54546,4.56675 0.9,0.87586 3.0948,2.56465 4.87734,3.75286 l 3.24098,2.16039 1.17008,-0.6572 c 2.05589,-1.15473 5.01571,-3.34776 7.07523,-5.24232 1.1,-1.01188 4.42371,-3.31251 7.386,-5.11251 2.96229,-1.8 6.23502,-3.97789 7.27273,-4.83975 1.03771,-0.86185 4.50491,-2.86824 7.70491,-4.45863 8.08531,-4.018371 14.22302,-5.730511 26,-7.252811 14.09982,-1.82255 26.51527,-2.75352 32.33724,-2.4248 4.02992,0.22754 21.70858,3.51176 28.0264,5.20656 9.34069,2.505701 28.29,10.916231 36.18181,16.059071 1.8,1.173 8.01819,5.79636 13.81819,10.27414 5.8,4.47778 12.50909,9.6103 14.90909,11.40561 8.49534,6.35489 12.61509,10.21973 18.17898,17.05423 1.49549,1.83701 3.66243,4.41445 4.81549,5.72766 1.15305,1.3132 3.65098,4.41797 5.55098,6.89948 7.97233,10.41233 8.68938,11.09364 20.72727,19.69405 8.1976,5.85674 17.53873,11.61859 26.72728,16.48605 10.47276,5.54776 15.01327,8.83928 22.44858,16.27357 6.02985,6.02899 8.27262,8.92849 12.29534,15.89557 10.34204,17.91176 15.18022,34.20833 16.89535,56.90909 0.136,1.8 0.38134,4.00542 0.54524,4.90092 0.35796,1.95602 -0.0832,3.00972 -1.19255,2.84842 -0.67502,-0.0981 -0.94956,-0.78113 -2.09193,-5.20389 -0.72323,-2.8 -1.74403,-6.4 -2.26843,-8 -0.52444,-1.6 -1.44684,-4.64744 -2.04979,-6.77209 -1.18029,-4.15915 -4.00461,-11.04821 -6.09392,-14.86427 -1.56226,-2.85345 -8.7176,-11.79281 -11.64855,-14.55287 -1.16163,-1.09391 -4.55767,-4.34832 -7.54676,-7.232 -9.0124,-8.69463 -23.79451,-19.23589 -34.50673,-24.60707 -8.84131,-4.43308 -20.60447,-12.35771 -26.7344,-18.01046 -2.52829,-2.3315 -5.16342,-4.95385 -5.85578,-5.82744 -0.6924,-0.87359 -2.92516,-3.55198 -4.96171,-5.95198 -2.03655,-2.4 -5.15189,-6.09661 -6.92295,-8.21469 -12.7269,-15.22062 -22.97327,-26.03962 -30.11607,-31.79926 -2.1928,-1.76815 -6.23378,-4.56501 -8.97996,-6.21523 -2.74622,-1.65022 -6.68124,-4.13301 -8.74447,-5.5173 -2.06324,-1.38429 -4.64953,-2.97045 -5.74731,-3.52479 -1.09775,-0.55434 -4.19655,-2.23701 -6.88622,-3.73926 -2.68964,-1.50224 -6.53509,-3.45782 -8.54546,-4.34572 -2.01032,-0.88791 -5.86425,-2.65114 -8.56425,-3.91829 -5.59687,-2.62671 -14.73302,-5.23332 -19.09091,-5.44677 -5.51924,-0.27034 -17.18582,3.06004 -26.34073,7.51934 -6.82476,3.32429 -7.62832,3.87517 -16.31149,11.18252 -9.60305,8.08151 -11.20243,9.50681 -12.87531,11.474 -3.33269,3.919 -9.54105,10.22348 -11.50072,11.67877 -1.13448,0.84246 -3.64335,3.07196 -5.57528,4.95444 -3.32625,3.2411 -3.82785,3.57977 -9.45454,6.38354 -5.08149,2.53209 -6.3632,3.01978 -8.85102,3.36783 -1.6,0.22384 -3.89091,0.63555 -5.09091,0.91492 -1.2,0.27936 -3.65455,0.50793 -5.45455,0.50793 -1.8,0 -4.25454,-0.22857 -5.45454,-0.50793 -1.2,-0.27937 -3.49091,-0.69688 -5.09091,-0.9278 -2.46159,-0.35528 -3.81822,-0.87144 -8.8191,-3.35541 -5.60253,-2.78281 -6.09443,-3.11485 -9.45455,-6.38181 -1.94949,-1.89544 -4.48843,-4.15256 -5.64209,-5.01582 -1.85842,-1.39062 -3.78369,-3.33422 -12.4479,-12.56652 -3.1862,-3.39512 -14.34872,-12.95646 -20.18182,-17.2869 -3.2611,-2.42102 -13.40064,-7.17283 -18.90909,-8.86159 -9.21126,-2.82396 -13.95672,-3.58463 -17.81818,-2.85614 -4.54954,0.8583 -12.01809,3.06648 -14.90909,4.40808 -1.7,0.78891 -5.7748,2.64871 -9.0551,4.1329 -3.28031,1.48419 -6.88031,3.24707 -8,3.91752 -1.1197,0.67045 -3.99944,2.2519 -6.39944,3.51434 -2.4,1.26244 -6.24546,3.54451 -8.54546,5.07127 -2.3,1.52676 -6.06364,3.89822 -8.36364,5.26991 -2.3,1.37168 -5.98079,3.89694 -8.17954,5.61167 -4.60626,3.59228 -13.77411,12.62569 -19.7728,19.48282 -7.4392,8.50379 -8.11187,9.2874 -12.75131,14.8545 -10.58913,12.70639 -12.16772,14.47304 -16.31829,18.26234 -6.08492,5.55528 -17.40829,13.16644 -26.1212,17.55773 -11.16631,5.62779 -26.01405,16.21315 -34.99912,24.95182 -2.92175,2.84163 -6.27148,6.05148 -7.44383,7.133 -1.17236,1.08152 -2.97153,3.03004 -3.99816,4.33004 -1.02663,1.3 -2.8084,3.49348 -3.95949,4.87439 -5.01339,6.01436 -8.26219,14.03694 -13.78256,34.0347 -0.5797,2.1 -1.17844,4.30909 -1.33053,4.90909 -0.31432,1.24001 -1.7337,1.73593 -2.11612,0.73935 z"
       id="path1376" />
  </g>
</svg>
